# xmcd
#
# Track frame offsets:
# 150
# 19723
# 33922
# 48356
# 65482
# 77566
# 94098
# 107099
# 127543
# 144589
# 158660
# 174845
# 186127
# 201472
# 216364
# 238176
# 250933
# 263665
# 276370
# 291297
# 302284
# 318800
# 327798
# 344705
#
# Disc length: 4739 seconds
#
#
# Revision: 1
# Processed by: cddbd v1.5.2PL0 Copyright (c) Steve Scherf et al.
# Submitted via: FreeRIP 2.945 
#
DISCID=52128118
DTITLE=Liu e Leu - O Melhor
DYEAR=1900
DGENRE=Country
TTITLE0=Sementinha
TTITLE1=O Mineiro e o Italiano
TTITLE2=Prato do Dia
TTITLE3=Berrante de Ouro
TTITLE4=Verdadeiro Amor
TTITLE5=Velho Pouso de Boiada
TTITLE6=Maes de Carvao
TTITLE7=A Volta Que o Mundo Da
TTITLE8=Boiadeiro Errante
TTITLE9=Saudade da Minha Terra
TTITLE10=Pioneiro do Sertao
TTITLE11=Saudade de Um Grande Amor
TTITLE12=Amor e Felicidade
TTITLE13=Vida Fingida
TTITLE14=Legitimo Doutor
TTITLE15=Aliaca de Noivado
TTITLE16=Mulher da Minha VIda
TTITLE17=Caboclo Abencoado
TTITLE18=O Direito de Amar
TTITLE19=Quando o Meu Bem me Disse Adeus
TTITLE20=Travessia do Araguaia
TTITLE21=Capricho da Vida
TTITLE22=Couro de Boi
TTITLE23=Adeus Morena
EXTD=
EXTT0=
EXTT1=
EXTT2=
EXTT3=
EXTT4=
EXTT5=
EXTT6=
EXTT7=
EXTT8=
EXTT9=
EXTT10=
EXTT11=
EXTT12=
EXTT13=
EXTT14=
EXTT15=
EXTT16=
EXTT17=
EXTT18=
EXTT19=
EXTT20=
EXTT21=
EXTT22=
EXTT23=
PLAYORDER=
